<svg id="svg" version="1.1" xmlns="http://www.w3.org/2000/svg" xmlns:xlink="http://www.w3.org/1999/xlink" width="400" height="400" viewBox="0, 0, 400,400"><g id="svgg"><path id="path0" d="M334.600 271.610 C 333.010 272.676,329.696 274.248,328.200 274.645 C 327.540 274.821,290.949 275.018,246.887 275.084 L 166.774 275.204 168.687 277.525 C 169.739 278.801,171.050 280.445,171.600 281.176 C 172.150 281.908,172.870 282.819,173.200 283.200 C 173.530 283.581,174.250 284.481,174.800 285.200 C 175.350 285.919,176.070 286.819,176.400 287.200 C 176.730 287.581,177.450 288.483,178.000 289.203 C 178.550 289.924,180.980 292.994,183.400 296.026 C 185.820 299.057,189.150 303.283,190.800 305.416 C 192.450 307.548,194.164 309.677,194.609 310.147 C 195.053 310.616,195.860 311.630,196.401 312.400 C 196.943 313.170,197.775 314.250,198.252 314.800 C 198.728 315.350,200.673 317.780,202.573 320.200 C 204.473 322.620,206.249 324.870,206.519 325.200 C 206.790 325.530,207.639 326.604,208.406 327.586 C 209.172 328.568,210.127 329.738,210.526 330.186 C 210.925 330.634,212.005 331.990,212.925 333.200 C 213.845 334.410,214.696 335.490,214.816 335.600 C 215.004 335.772,218.232 339.835,219.107 341.000 C 220.227 342.492,222.215 345.034,222.392 345.200 C 222.509 345.310,223.096 346.059,223.696 346.865 C 224.297 347.671,225.016 348.576,225.294 348.875 C 225.572 349.175,226.428 350.225,227.194 351.210 C 227.961 352.194,228.811 353.270,229.083 353.600 C 229.355 353.930,231.220 356.270,233.227 358.800 C 235.234 361.330,237.174 363.764,237.538 364.208 C 237.902 364.652,238.675 365.642,239.255 366.408 C 239.835 367.174,240.645 368.190,241.055 368.666 C 242.462 370.302,243.013 371.003,243.993 372.400 C 244.532 373.170,245.207 374.041,245.493 374.335 C 245.778 374.629,246.504 375.529,247.106 376.334 C 247.708 377.140,248.528 378.159,248.929 378.600 C 249.330 379.040,250.680 380.749,251.929 382.399 C 253.178 384.048,254.428 385.638,254.706 385.933 C 254.984 386.228,255.704 387.129,256.306 387.934 C 256.908 388.740,257.732 389.759,258.138 390.200 C 261.444 393.786,262.065 396.589,260.035 398.763 L 258.869 400.011 316.701 399.905 C 362.536 399.822,374.568 399.696,374.700 399.300 C 374.792 399.025,375.122 398.800,375.433 398.800 C 375.745 398.800,376.000 398.620,376.000 398.400 C 376.000 398.180,376.274 398.000,376.609 398.000 C 377.401 398.000,381.600 393.801,381.600 393.009 C 381.600 392.674,381.780 392.400,382.000 392.400 C 382.220 392.400,382.400 392.130,382.400 391.800 C 382.400 391.470,382.580 391.200,382.800 391.200 C 383.020 391.200,383.200 390.750,383.200 390.200 C 383.200 389.650,383.380 389.200,383.600 389.200 C 384.098 389.200,384.160 283.118,383.662 282.095 C 383.477 281.713,383.117 280.997,382.862 280.505 C 382.608 280.013,382.400 279.421,382.400 279.189 C 382.400 278.957,382.040 278.380,381.600 277.908 C 381.160 277.436,380.800 276.783,380.800 276.458 C 380.800 276.133,380.705 275.961,380.590 276.077 C 380.474 276.193,379.642 275.593,378.740 274.744 C 377.839 273.895,376.853 273.200,376.551 273.200 C 376.248 273.200,376.000 273.020,376.000 272.800 C 376.000 272.580,375.730 272.400,375.400 272.400 C 375.070 272.400,374.800 272.220,374.800 272.000 C 374.800 271.780,374.260 271.600,373.600 271.600 C 372.940 271.600,372.400 271.420,372.400 271.200 C 372.400 270.304,335.957 270.700,334.600 271.610 " stroke="none" fill="#61bf95" fill-rule="evenodd"></path><path id="path1" d="M66.504 142.040 C 64.026 142.457,61.247 143.694,59.822 145.015 C 59.260 145.536,58.800 145.889,58.800 145.799 C 58.800 145.710,58.350 146.086,57.800 146.636 C 57.250 147.186,56.800 147.858,56.800 148.130 C 56.800 148.401,56.440 148.883,56.000 149.200 C 55.560 149.517,55.200 150.097,55.200 150.488 C 55.200 150.880,55.020 151.200,54.800 151.200 C 54.580 151.200,54.400 151.740,54.400 152.400 C 54.400 153.060,54.220 153.600,54.000 153.600 C 53.735 153.600,53.600 172.200,53.600 208.600 C 53.600 245.000,53.735 263.600,54.000 263.600 C 54.220 263.600,54.400 264.140,54.400 264.800 C 54.400 265.460,54.580 266.000,54.800 266.000 C 55.020 266.000,55.200 266.267,55.200 266.593 C 55.200 267.873,59.737 272.368,62.560 273.884 L 64.600 274.979 79.416 275.112 L 94.232 275.244 95.418 273.922 C 96.070 273.195,97.233 271.791,98.002 270.801 C 98.771 269.812,99.619 268.732,99.887 268.401 C 100.611 267.509,117.570 246.079,122.253 240.140 C 129.533 230.907,131.065 230.478,135.601 236.400 C 136.359 237.390,137.080 238.290,137.203 238.400 C 137.327 238.510,139.193 240.850,141.351 243.600 C 143.510 246.350,145.573 248.961,145.938 249.401 C 146.302 249.842,147.230 251.011,148.000 252.000 C 149.835 254.356,149.467 253.893,156.276 262.416 C 159.534 266.495,162.972 270.841,163.915 272.073 L 165.630 274.313 245.315 274.470 C 303.754 274.585,325.587 274.506,327.200 274.173 C 329.833 273.630,332.073 272.715,333.477 271.611 C 334.044 271.165,334.850 270.800,335.267 270.800 C 336.175 270.800,338.800 268.284,338.800 267.413 C 338.800 267.076,338.980 266.800,339.200 266.800 C 339.420 266.800,339.600 266.440,339.600 266.000 C 339.600 265.560,339.780 265.200,340.000 265.200 C 340.220 265.200,340.400 264.660,340.400 264.000 C 340.400 263.340,340.580 262.800,340.800 262.800 C 341.398 262.800,341.348 155.205,340.749 153.719 C 339.187 149.838,337.456 147.200,336.473 147.200 C 336.273 147.200,335.410 146.636,334.555 145.947 C 333.700 145.257,332.010 144.222,330.800 143.647 L 328.600 142.600 295.000 142.291 C 276.520 142.122,251.860 141.987,240.200 141.992 C 152.443 142.031,109.564 141.990,90.600 141.850 C 78.500 141.760,67.657 141.846,66.504 142.040 " stroke="none" fill="#f25133" fill-rule="evenodd"></path><path id="path2" d="M269.200 28.713 C 269.200 28.885,268.705 29.066,268.100 29.116 C 267.495 29.166,266.940 29.385,266.867 29.603 C 266.793 29.822,266.388 30.000,265.967 30.000 C 265.545 30.000,265.200 30.180,265.200 30.400 C 265.200 30.620,264.924 30.800,264.587 30.800 C 263.276 30.800,258.400 36.696,258.400 38.281 C 258.400 38.812,258.256 39.158,258.080 39.049 C 257.904 38.941,257.716 39.515,257.663 40.326 C 257.609 41.137,257.393 41.860,257.182 41.933 C 256.645 42.121,256.662 134.000,257.200 134.000 C 257.420 134.000,257.600 134.529,257.600 135.176 C 257.600 135.823,257.780 136.464,258.000 136.600 C 258.220 136.736,258.400 137.253,258.400 137.748 C 258.400 138.244,258.767 139.043,259.216 139.525 C 259.664 140.006,259.907 140.400,259.754 140.400 C 259.602 140.400,259.893 140.760,260.400 141.200 C 260.907 141.640,261.340 142.039,261.361 142.088 C 261.383 142.136,276.520 142.271,295.000 142.388 L 328.600 142.600 330.800 143.647 C 332.010 144.222,333.700 145.257,334.555 145.947 L 336.110 147.200 362.455 147.200 C 379.752 147.200,388.800 147.063,388.800 146.800 C 388.800 146.580,389.162 146.400,389.605 146.400 C 390.496 146.400,391.740 145.769,392.955 144.700 C 393.393 144.315,393.903 144.000,394.089 144.000 C 394.521 144.000,397.200 141.332,397.200 140.902 C 397.200 140.723,397.560 140.317,398.000 140.000 C 398.440 139.683,398.800 139.139,398.800 138.792 C 398.800 138.444,399.025 137.934,399.300 137.659 C 399.684 137.274,399.800 133.352,399.800 120.799 C 399.800 108.245,399.684 104.323,399.300 103.940 C 399.025 103.665,398.800 102.767,398.800 101.944 C 398.800 101.121,398.620 100.336,398.400 100.200 C 398.180 100.064,398.000 99.243,398.000 98.376 C 398.000 97.509,397.820 96.800,397.600 96.800 C 397.380 96.800,397.200 96.159,397.200 95.376 C 397.200 94.529,397.038 94.053,396.800 94.200 C 396.567 94.344,396.400 93.937,396.400 93.224 C 396.400 92.551,396.220 92.000,396.000 92.000 C 395.780 92.000,395.600 91.460,395.600 90.800 C 395.600 90.140,395.420 89.600,395.200 89.600 C 394.980 89.600,394.800 89.060,394.800 88.400 C 394.800 87.740,394.620 87.200,394.400 87.200 C 394.180 87.200,394.000 86.840,394.000 86.400 C 394.000 85.960,393.820 85.600,393.600 85.600 C 393.380 85.600,393.200 85.161,393.200 84.624 C 393.200 84.087,393.020 83.536,392.800 83.400 C 392.580 83.264,392.400 82.803,392.400 82.376 C 392.400 81.949,392.220 81.600,392.000 81.600 C 391.780 81.600,391.600 81.338,391.600 81.017 C 391.600 80.443,388.136 73.590,387.649 73.200 C 387.511 73.090,387.144 72.505,386.832 71.900 C 386.520 71.295,386.115 70.800,385.932 70.800 C 385.750 70.800,385.600 70.480,385.600 70.088 C 385.600 69.697,385.240 69.117,384.800 68.800 C 384.360 68.483,384.000 67.943,384.000 67.600 C 384.000 67.257,383.640 66.717,383.200 66.400 C 382.760 66.083,382.400 65.670,382.400 65.483 C 382.400 65.296,382.175 64.905,381.900 64.615 C 381.625 64.324,380.770 63.325,380.000 62.394 C 376.774 58.492,368.600 50.000,368.071 50.000 C 367.897 50.000,366.921 49.235,365.902 48.300 C 364.883 47.365,363.825 46.544,363.550 46.475 C 363.275 46.406,362.748 46.001,362.378 45.575 C 362.009 45.149,361.571 44.800,361.407 44.800 C 361.242 44.800,360.249 44.170,359.200 43.400 C 358.151 42.630,357.092 42.000,356.846 42.000 C 356.601 42.000,356.400 41.854,356.400 41.675 C 356.400 41.496,355.770 41.102,355.000 40.800 C 354.230 40.498,353.600 40.104,353.600 39.925 C 353.600 39.746,353.240 39.600,352.800 39.600 C 352.360 39.600,351.999 39.465,351.997 39.300 C 351.993 38.935,350.051 38.000,349.297 38.000 C 348.998 38.000,348.864 37.820,349.000 37.600 C 349.136 37.380,348.887 37.200,348.447 37.200 C 348.007 37.200,347.536 37.020,347.400 36.800 C 347.264 36.580,346.803 36.400,346.376 36.400 C 345.949 36.400,345.600 36.220,345.600 36.000 C 345.600 35.780,345.328 35.600,344.995 35.600 C 344.407 35.600,343.982 35.433,342.105 34.462 C 341.613 34.208,340.938 34.000,340.605 34.000 C 340.272 34.000,340.000 33.820,340.000 33.600 C 340.000 33.380,339.471 33.200,338.824 33.200 C 338.177 33.200,337.536 33.020,337.400 32.800 C 337.264 32.580,336.724 32.400,336.200 32.400 C 335.676 32.400,335.136 32.220,335.000 32.000 C 334.864 31.780,334.223 31.600,333.576 31.600 C 332.929 31.600,332.400 31.420,332.400 31.200 C 332.400 30.980,331.691 30.800,330.824 30.800 C 329.957 30.800,329.136 30.620,329.000 30.400 C 328.864 30.180,327.964 30.000,327.000 30.000 C 326.036 30.000,325.136 29.820,325.000 29.600 C 324.864 29.380,323.784 29.200,322.600 29.200 C 321.416 29.200,320.336 29.020,320.200 28.800 C 319.903 28.320,269.200 28.233,269.200 28.713 M127.407 233.900 C 126.801 234.505,124.482 237.313,122.253 240.140 C 117.570 246.079,100.611 267.509,99.887 268.401 C 99.619 268.732,98.773 269.812,98.006 270.801 C 95.913 273.500,94.652 274.800,93.614 275.326 C 93.099 275.587,92.481 276.148,92.239 276.573 C 91.998 276.999,91.215 277.950,90.500 278.687 C 89.785 279.424,89.200 280.179,89.200 280.366 C 89.200 280.553,88.392 281.582,87.404 282.653 C 86.417 283.724,85.607 284.735,85.604 284.899 C 85.602 285.064,84.970 285.866,84.200 286.682 C 83.430 287.499,82.800 288.303,82.800 288.470 C 82.800 288.637,82.170 289.403,81.400 290.173 C 80.630 290.943,80.000 291.744,80.000 291.953 C 80.000 292.162,79.865 292.393,79.700 292.467 C 79.535 292.540,78.873 293.320,78.230 294.200 C 76.961 295.934,76.546 296.434,75.009 298.082 C 74.454 298.677,74.000 299.370,74.000 299.621 C 74.000 299.873,73.460 300.583,72.800 301.200 C 72.140 301.817,71.600 302.529,71.600 302.784 C 71.600 303.039,71.392 303.119,71.138 302.962 C 70.861 302.790,70.785 302.852,70.948 303.115 C 71.097 303.357,70.585 304.189,69.809 304.964 C 69.034 305.739,68.400 306.559,68.400 306.787 C 68.400 307.014,68.220 307.200,68.000 307.200 C 67.780 307.200,67.600 307.365,67.600 307.566 C 67.600 307.767,67.015 308.565,66.300 309.340 C 63.909 311.933,62.800 313.298,62.800 313.650 C 62.800 313.843,62.620 314.000,62.400 314.000 C 62.180 314.000,62.000 314.182,62.000 314.404 C 62.000 314.626,61.442 315.391,60.760 316.104 C 60.077 316.817,59.255 317.909,58.933 318.531 C 58.611 319.154,57.819 320.215,57.174 320.891 C 56.528 321.566,56.000 322.286,56.000 322.491 C 56.000 322.695,55.280 323.554,54.400 324.400 C 53.520 325.246,52.800 326.092,52.800 326.280 C 52.800 326.469,52.440 326.883,52.000 327.200 C 51.560 327.517,51.200 328.017,51.200 328.312 C 51.200 328.606,51.020 328.736,50.800 328.600 C 50.580 328.464,50.400 328.633,50.400 328.976 C 50.400 329.319,50.220 329.600,50.000 329.600 C 49.780 329.600,49.600 329.830,49.600 330.112 C 49.600 330.393,49.240 330.883,48.800 331.200 C 48.360 331.517,48.000 332.017,48.000 332.312 C 48.000 332.606,47.833 332.744,47.629 332.618 C 47.425 332.492,47.141 332.757,46.998 333.207 C 46.855 333.657,46.343 334.425,45.860 334.913 C 45.378 335.401,44.542 336.430,44.004 337.200 C 43.466 337.970,42.795 338.838,42.513 339.129 C 42.231 339.419,42.000 339.798,42.000 339.969 C 42.000 340.141,41.460 340.846,40.800 341.537 C 40.140 342.228,39.600 342.985,39.600 343.220 C 39.600 343.455,39.447 343.553,39.260 343.437 C 39.073 343.322,38.670 343.716,38.363 344.314 C 38.056 344.911,37.526 345.670,37.184 346.000 C 36.842 346.330,36.125 347.230,35.590 348.000 C 35.055 348.770,34.253 349.782,33.809 350.250 C 32.583 351.537,31.600 352.782,31.600 353.045 C 31.600 353.174,30.970 353.910,30.200 354.680 C 29.430 355.450,28.800 356.234,28.800 356.422 C 28.800 356.610,28.350 357.213,27.801 357.763 C 27.252 358.312,26.106 359.755,25.256 360.969 C 24.405 362.183,23.595 363.062,23.455 362.921 C 23.315 362.781,23.200 362.945,23.200 363.285 C 23.200 363.625,22.480 364.645,21.600 365.552 C 20.720 366.459,20.000 367.359,20.000 367.552 C 20.000 367.745,19.280 368.645,18.400 369.552 C 17.520 370.459,16.800 371.398,16.800 371.640 C 16.800 371.881,16.260 372.583,15.600 373.200 C 14.940 373.817,14.391 374.474,14.380 374.660 C 14.370 374.847,13.651 375.720,12.783 376.600 C 11.916 377.480,11.202 378.380,11.199 378.600 C 11.195 378.820,10.599 379.576,9.874 380.279 C 9.150 380.983,8.297 382.058,7.979 382.669 C 7.660 383.279,6.725 384.480,5.900 385.338 C 5.075 386.195,4.400 387.079,4.400 387.301 C 4.400 387.524,4.076 387.997,3.681 388.353 C 3.286 388.709,2.527 389.630,1.994 390.400 C 1.462 391.170,0.795 392.038,0.513 392.329 C -0.264 393.129,-0.175 398.568,0.629 399.371 C 1.197 399.940,13.467 400.000,129.700 400.000 L 258.143 400.000 259.472 398.550 C 261.915 395.882,261.679 395.318,254.202 385.989 C 252.003 383.245,249.643 380.267,248.958 379.371 C 248.273 378.474,247.423 377.394,247.069 376.971 C 246.715 376.547,243.082 371.970,238.996 366.800 C 234.910 361.630,231.346 357.130,231.078 356.800 C 230.809 356.470,229.961 355.394,229.194 354.410 C 228.428 353.425,227.572 352.375,227.294 352.075 C 227.016 351.776,226.296 350.873,225.694 350.068 C 225.092 349.264,223.372 347.074,221.871 345.203 C 220.370 343.331,218.927 341.530,218.664 341.200 C 218.401 340.870,216.964 339.070,215.470 337.200 C 213.976 335.330,212.539 333.528,212.277 333.195 C 210.654 331.134,207.437 327.076,205.200 324.266 C 203.770 322.470,202.108 320.341,201.506 319.535 C 200.904 318.729,200.184 317.824,199.906 317.525 C 199.628 317.225,198.772 316.175,198.006 315.190 C 197.239 314.206,196.395 313.130,196.131 312.800 C 193.102 309.013,188.175 302.808,184.854 298.600 C 182.598 295.740,180.535 293.130,180.270 292.800 C 180.005 292.470,179.161 291.399,178.394 290.419 C 177.628 289.440,176.614 288.180,176.143 287.619 C 175.006 286.267,167.573 276.824,164.800 273.210 C 163.590 271.633,159.845 266.890,156.477 262.671 C 149.220 253.580,149.752 254.249,148.000 252.000 C 147.230 251.011,146.302 249.842,145.938 249.401 C 145.573 248.961,143.510 246.350,141.351 243.600 C 139.193 240.850,137.327 238.510,137.203 238.400 C 137.080 238.290,136.359 237.390,135.601 236.400 C 132.559 232.428,129.742 231.569,127.407 233.900 " stroke="none" fill="#fbd146" fill-rule="evenodd"></path><path id="path3" d="M118.100 0.286 C 117.385 0.377,116.800 0.619,116.800 0.825 C 116.800 1.031,116.533 1.200,116.207 1.200 C 115.085 1.200,109.987 6.208,109.670 7.621 C 109.599 7.939,109.384 8.257,109.192 8.326 C 109.001 8.395,108.944 8.710,109.065 9.026 C 109.186 9.342,109.086 9.600,108.843 9.600 C 108.599 9.600,108.400 10.241,108.400 11.024 C 108.400 11.871,108.238 12.347,108.000 12.200 C 107.734 12.036,107.600 32.455,107.600 73.153 C 107.600 113.521,107.736 134.437,108.000 134.600 C 108.220 134.736,108.400 135.377,108.400 136.024 C 108.400 136.671,108.591 137.200,108.824 137.200 C 109.057 137.200,109.152 137.354,109.036 137.541 C 108.625 138.207,111.136 141.568,112.284 141.888 C 112.898 142.060,137.113 142.200,166.096 142.200 L 218.792 142.200 219.696 141.189 C 220.872 139.873,221.797 138.196,222.567 135.984 C 223.319 133.826,223.547 11.861,222.800 11.400 C 222.580 11.264,222.400 10.713,222.400 10.176 C 222.400 9.639,222.220 9.200,222.000 9.200 C 221.780 9.200,221.600 8.840,221.600 8.400 C 221.600 7.960,221.450 7.600,221.268 7.600 C 221.085 7.600,220.680 7.105,220.368 6.500 C 219.653 5.112,216.449 2.000,215.736 2.000 C 215.441 2.000,215.200 1.820,215.200 1.600 C 215.200 1.380,214.855 1.200,214.433 1.200 C 214.012 1.200,213.592 0.975,213.500 0.700 C 213.340 0.221,121.757 -0.177,118.100 0.286 " stroke="none" fill="#3c7494" fill-rule="evenodd"></path><path id="path4" d="M333.495 271.596 C 332.209 272.608,329.463 273.784,327.400 274.207 C 326.520 274.388,289.812 274.486,245.826 274.425 L 165.852 274.315 166.585 275.433 C 167.265 276.470,176.294 287.953,176.782 288.400 C 176.902 288.510,177.628 289.410,178.394 290.400 C 179.161 291.390,180.005 292.470,180.270 292.800 C 180.535 293.130,182.598 295.740,184.854 298.600 C 188.175 302.808,193.102 309.013,196.131 312.800 C 196.395 313.130,197.239 314.206,198.006 315.190 C 198.772 316.175,199.628 317.225,199.906 317.525 C 200.184 317.824,200.904 318.729,201.506 319.535 C 202.108 320.341,203.770 322.470,205.200 324.266 C 207.437 327.076,210.654 331.134,212.277 333.195 C 212.632 333.645,216.444 338.463,218.268 340.767 C 218.341 340.858,218.496 340.837,218.613 340.720 C 218.783 340.550,215.738 336.446,214.816 335.600 C 214.696 335.490,213.845 334.410,212.925 333.200 C 212.005 331.990,210.925 330.634,210.526 330.186 C 210.127 329.738,209.172 328.568,208.406 327.586 C 207.639 326.604,206.790 325.530,206.519 325.200 C 206.249 324.870,204.473 322.620,202.573 320.200 C 200.673 317.780,198.728 315.350,198.252 314.800 C 197.775 314.250,196.943 313.170,196.401 312.400 C 195.860 311.630,195.053 310.616,194.609 310.147 C 194.164 309.677,192.450 307.548,190.800 305.416 C 189.150 303.283,185.820 299.057,183.400 296.026 C 180.980 292.994,178.550 289.924,178.000 289.203 C 177.450 288.483,176.730 287.581,176.400 287.200 C 176.070 286.819,175.350 285.919,174.800 285.200 C 174.250 284.481,173.530 283.581,173.200 283.200 C 172.870 282.819,172.150 281.908,171.600 281.176 C 171.050 280.445,169.739 278.801,168.687 277.525 L 166.774 275.204 246.887 275.084 C 290.949 275.018,327.540 274.821,328.200 274.645 C 330.794 273.956,336.492 270.808,335.154 270.803 C 334.799 270.801,334.052 271.158,333.495 271.596 M219.080 341.700 C 219.288 341.975,220.566 343.576,221.920 345.257 C 223.274 346.939,225.044 349.189,225.854 350.257 C 226.663 351.326,227.432 352.290,227.563 352.400 C 227.693 352.510,228.428 353.410,229.194 354.400 C 229.961 355.390,230.809 356.470,231.078 356.800 C 231.346 357.130,234.910 361.630,238.996 366.800 C 243.082 371.970,246.715 376.547,247.069 376.971 C 247.423 377.394,248.273 378.474,248.958 379.371 C 249.643 380.267,252.003 383.245,254.202 385.989 C 261.609 395.231,261.911 395.926,259.588 398.413 C 258.922 399.126,258.466 399.800,258.576 399.910 C 258.686 400.020,259.322 399.526,259.988 398.813 C 262.068 396.586,261.473 393.818,258.138 390.200 C 257.732 389.759,256.908 388.740,256.306 387.934 C 255.704 387.129,254.984 386.228,254.706 385.933 C 254.428 385.638,253.178 384.048,251.929 382.399 C 250.680 380.749,249.330 379.040,248.929 378.600 C 248.528 378.159,247.708 377.140,247.106 376.334 C 246.504 375.529,245.778 374.629,245.493 374.335 C 245.207 374.041,244.532 373.170,243.993 372.400 C 243.013 371.003,242.462 370.302,241.055 368.666 C 240.645 368.190,239.835 367.174,239.255 366.408 C 238.675 365.642,237.902 364.652,237.538 364.208 C 237.174 363.764,235.234 361.330,233.227 358.800 C 231.220 356.270,229.355 353.930,229.083 353.600 C 228.811 353.270,227.961 352.194,227.194 351.210 C 226.428 350.225,225.572 349.175,225.294 348.875 C 225.016 348.576,224.296 347.671,223.694 346.866 C 223.092 346.060,222.285 345.051,221.900 344.624 C 221.514 344.197,220.794 343.254,220.300 342.527 C 219.805 341.800,219.243 341.204,219.051 341.203 C 218.859 341.201,218.872 341.425,219.080 341.700 " stroke="none" fill="#b2aa66" fill-rule="evenodd"></path></g></svg>